<?xml version="1.0" encoding="UTF-8" standalone="no"?>
<svg
   xmlns:dc="http://purl.org/dc/elements/1.1/"
   xmlns:cc="http://creativecommons.org/ns#"
   xmlns:rdf="http://www.w3.org/1999/02/22-rdf-syntax-ns#"
   xmlns:svg="http://www.w3.org/2000/svg"
   xmlns="http://www.w3.org/2000/svg"
   xmlns:sodipodi="http://sodipodi.sourceforge.net/DTD/sodipodi-0.dtd"
   xmlns:inkscape="http://www.inkscape.org/namespaces/inkscape"
   inkscape:version="1.0.1 (3bc2e813f5, 2020-09-07)"
   inkscape:export-ydpi="10.227273"
   inkscape:export-xdpi="10.227273"
   inkscape:export-filename="/home/robin/Downloads/email.png"
   sodipodi:docname="email.svg"
   id="svg4"
   version="1.1"
   viewBox="0 0 1792 1408"
   height="1408"
   width="1792">
  <metadata
     id="metadata10">
    <rdf:RDF>
      <cc:Work
         rdf:about="">
        <dc:format>image/svg+xml</dc:format>
        <dc:type
           rdf:resource="http://purl.org/dc/dcmitype/StillImage" />
        <dc:title />
      </cc:Work>
    </rdf:RDF>
  </metadata>
  <defs
     id="defs8" />
  <sodipodi:namedview
     inkscape:current-layer="svg4"
     inkscape:window-maximized="1"
     inkscape:window-y="75"
     inkscape:window-x="0"
     inkscape:cy="334.50957"
     inkscape:cx="1351.5541"
     inkscape:zoom="0.19949777"
     fit-margin-bottom="0"
     fit-margin-right="0"
     fit-margin-left="0"
     fit-margin-top="0"
     showgrid="false"
     id="namedview6"
     inkscape:window-height="977"
     inkscape:window-width="1680"
     inkscape:pageshadow="2"
     inkscape:pageopacity="0"
     guidetolerance="10"
     gridtolerance="10"
     objecttolerance="10"
     borderopacity="1"
     bordercolor="#666666"
     pagecolor="#ffffff"
     inkscape:document-rotation="0" />
  <path
     style="fill:#000000"
     id="path2"
     d="m 1792,454 v 794 q 0,66 -47,113 -47,47 -113,47 H 160 Q 94,1408 47,1361 0,1314 0,1248 V 454 q 44,49 101,87 362,246 497,345 57,42 92.5,65.5 35.5,23.5 94.5,48 59,24.5 110,24.5 h 2 q 51,0 110,-24.5 59,-24.5 94.5,-48 35.5,-23.5 92.5,-65.5 170,-123 498,-345 57,-39 100,-87 z m 0,-294 q 0,79 -49,151 -49,72 -122,123 -376,261 -468,325 -10,7 -42.5,30.5 -32.5,23.5 -54,38 -21.5,14.5 -52,32.5 -30.5,18 -57.5,27 -27,9 -50,9 h -2 q -23,0 -50,-9 -27,-9 -57.5,-27 Q 757,842 735.5,827.5 714,813 681.5,789.5 649,766 639,759 548,695 377,576.5 206,458 172,434 110,392 55,318.5 0,245 0,182 0,104 41.5,52 83,0 160,0 h 1472 q 65,0 112.5,47 47.5,47 47.5,113 z" />
</svg>
