<?xml version="1.0" encoding="UTF-8" standalone="no"?>
<svg
   xmlns:dc="http://purl.org/dc/elements/1.1/"
   xmlns:cc="http://creativecommons.org/ns#"
   xmlns:rdf="http://www.w3.org/1999/02/22-rdf-syntax-ns#"
   xmlns:svg="http://www.w3.org/2000/svg"
   xmlns="http://www.w3.org/2000/svg"
   xmlns:sodipodi="http://sodipodi.sourceforge.net/DTD/sodipodi-0.dtd"
   xmlns:inkscape="http://www.inkscape.org/namespaces/inkscape"
   inkscape:version="1.0.1 (3bc2e813f5, 2020-09-07)"
   inkscape:export-ydpi="17.049999"
   inkscape:export-xdpi="17.049999"
   inkscape:export-filename="/home/robin/Downloads/fa-phone.png"
   sodipodi:docname="fa-phone.svg"
   id="svg4"
   version="1.1"
   viewBox="0 0 1408 1408"
   height="1408"
   width="1408">
  <metadata
     id="metadata10">
    <rdf:RDF>
      <cc:Work
         rdf:about="">
        <dc:format>image/svg+xml</dc:format>
        <dc:type
           rdf:resource="http://purl.org/dc/dcmitype/StillImage" />
        <dc:title />
      </cc:Work>
    </rdf:RDF>
  </metadata>
  <defs
     id="defs8" />
  <sodipodi:namedview
     inkscape:current-layer="svg4"
     inkscape:window-maximized="1"
     inkscape:window-y="75"
     inkscape:window-x="0"
     inkscape:cy="725.39563"
     inkscape:cx="695.02001"
     inkscape:zoom="0.28213245"
     fit-margin-bottom="0"
     fit-margin-right="0"
     fit-margin-left="0"
     fit-margin-top="0"
     showgrid="false"
     id="namedview6"
     inkscape:window-height="977"
     inkscape:window-width="1680"
     inkscape:pageshadow="2"
     inkscape:pageopacity="0"
     guidetolerance="10"
     gridtolerance="10"
     objecttolerance="10"
     borderopacity="1"
     bordercolor="#666666"
     pagecolor="#ffffff"
     inkscape:document-rotation="0" />
  <path
     style="fill:#000000"
     id="path2"
     d="m 1408,1112 q 0,27 -10,70.5 -10,43.5 -21,68.5 -21,50 -122,106 -94,51 -186,51 -27,0 -53,-3.5 -26,-3.5 -57.5,-12.5 -31.5,-9 -47,-14.5 Q 896,1372 856,1357 816,1342 807,1339 709,1304 632,1256 505,1177 368,1040 231,903 152,776 104,699 69,601 66,592 51,552 36,512 30.5,496.5 25,481 16,449.5 7,418 3.5,392 0,366 0,339 0,247 51,153 107,52 157,31 182,20 225.5,10 269,0 296,0 q 14,0 21,3 18,6 53,76 11,19 30,54 19,35 35,63.5 16,28.5 31,53.5 3,4 17.5,25 14.5,21 21.5,35.5 7,14.5 7,28.5 0,20 -28.5,50 -28.5,30 -62,55 -33.5,25 -62,53 -28.5,28 -28.5,46 0,9 5,22.5 5,13.5 8.5,20.5 3.5,7 14,24 10.5,17 11.5,19 76,137 174,235 98,98 235,174 2,1 19,11.5 17,10.5 24,14 7,3.5 20.5,8.5 13.5,5 22.5,5 18,0 46,-28.5 28,-28.5 53,-62 25,-33.5 55,-62 30,-28.5 50,-28.5 14,0 28.5,7 14.5,7 35.5,21.5 21,14.5 25,17.5 25,15 53.5,31 28.5,16 63.5,35 35,19 54,30 70,35 76,53 3,7 3,21 z" />
</svg>
