<?xml version="1.0" encoding="UTF-8" standalone="no"?>
<svg
   xmlns:dc="http://purl.org/dc/elements/1.1/"
   xmlns:cc="http://creativecommons.org/ns#"
   xmlns:rdf="http://www.w3.org/1999/02/22-rdf-syntax-ns#"
   xmlns:svg="http://www.w3.org/2000/svg"
   xmlns="http://www.w3.org/2000/svg"
   xmlns:sodipodi="http://sodipodi.sourceforge.net/DTD/sodipodi-0.dtd"
   xmlns:inkscape="http://www.inkscape.org/namespaces/inkscape"
   viewBox="0 0 576.04437 447.95001"
   version="1.1"
   id="svg4"
   sodipodi:docname="home.svg"
   width="576.04437"
   height="447.95001"
   inkscape:version="1.0.1 (3bc2e813f5, 2020-09-07)"
   inkscape:export-filename="/home/robin/shares/first/robin/arbeit/06. eigene Firma (ab 2022)/icons/font awesome/home.png"
   inkscape:export-xdpi="25"
   inkscape:export-ydpi="25">
  <metadata
     id="metadata10">
    <rdf:RDF>
      <cc:Work
         rdf:about="">
        <dc:format>image/svg+xml</dc:format>
        <dc:type
           rdf:resource="http://purl.org/dc/dcmitype/StillImage" />
        <dc:title></dc:title>
      </cc:Work>
    </rdf:RDF>
  </metadata>
  <defs
     id="defs8" />
  <sodipodi:namedview
     pagecolor="#ffffff"
     bordercolor="#666666"
     borderopacity="1"
     objecttolerance="10"
     gridtolerance="10"
     guidetolerance="10"
     inkscape:pageopacity="0"
     inkscape:pageshadow="2"
     inkscape:window-width="1920"
     inkscape:window-height="1122"
     id="namedview6"
     showgrid="false"
     fit-margin-top="0"
     fit-margin-left="0"
     fit-margin-right="0"
     fit-margin-bottom="0"
     inkscape:zoom="1.4707031"
     inkscape:cx="287.90058"
     inkscape:cy="223.99229"
     inkscape:window-x="1680"
     inkscape:window-y="0"
     inkscape:window-maximized="1"
     inkscape:current-layer="svg4" />
  <path
     d="M 280.38499,116.21 96.014986,268.06 v 163.89 a 16,16 0 0 0 16.000004,16 l 112.06,-0.29 a 16,16 0 0 0 15.92,-16 v -95.71 a 16,16 0 0 1 16,-16 h 64 a 16,16 0 0 1 16,16 v 95.64 a 16,16 0 0 0 16,16.05 l 112.02,0.31 a 16,16 0 0 0 16,-16 v -164 l -184.33,-151.74 a 12.19,12.19 0 0 0 -15.3,0 z m 291.23,103.21 -83.6,-68.91 V 12 a 12,12 0 0 0 -12,-12 h -56 a 12,12 0 0 0 -12,12 v 72.61 l -89.53,-73.66 a 48,48 0 0 0 -61,0 L 4.3549864,219.42 a 12,12 0 0 0 -1.6,16.9 l 25.4999996,31 a 12,12 0 0 0 16.91,1.63 L 280.38499,75.21 a 12.19,12.19 0 0 1 15.3,0 l 235.23,193.74 a 12,12 0 0 0 16.9,-1.6 l 25.5,-31 a 12,12 0 0 0 -1.7,-16.93 z"
     id="path2" />
</svg>
